<mxfile host="app.diagrams.net" modified="2024-02-21T01:03:49.464Z" agent="Mozilla/5.0 (Windows NT 10.0; Win64; x64) AppleWebKit/537.36 (KHTML, like Gecko) Chrome/121.0.0.0 Safari/537.36 Edg/121.0.0.0" version="23.1.5" etag="7nUnnnVHImvICkRfzNfz" type="github">
  <diagram name="第 1 页" id="h4gjcvM_RN33ZqgyfKRl">
    <mxGraphModel>
      <root>
        <mxCell id="0" />
        <mxCell id="1" parent="0" />
      </root>
    </mxGraphModel>
  </diagram>
</mxfile>
